<?xml version="1.0" encoding="utf-8"?>
<!-- Generator: Adobe Illustrator 25.0.0, SVG Export Plug-In . SVG Version: 6.00 Build 0)  -->
<svg version="1.1" id="Lager_1" xmlns="http://www.w3.org/2000/svg" xmlns:xlink="http://www.w3.org/1999/xlink" x="0px" y="0px"
	 viewBox="0 0 700 700" style="enable-background:new 0 0 700 700;" xml:space="preserve">
<g>
	<path d="M106.1,203.7h97.5v97.5h-97.5V203.7z"/>
	<path d="M203.7,106.1h97.5v97.5h-97.5V106.1z"/>
	<path d="M301.2,8.6h97.5v97.5h-97.5V8.6z"/>
	<path d="M301.2,593.9h97.5v97.5h-97.5V593.9z"/>
	<path d="M203.7,496.3h97.5v97.5h-97.5V496.3z"/>
	<path d="M106.1,398.8h97.5v97.5h-97.5V398.8z"/>
	<path d="M8.6,301.2h97.5v97.5H8.6V301.2z"/>
	<path d="M398.8,301.2h195.1v-97.5H301.2v97.5H398.8z"/>
	<path d="M398.8,398.8h-97.5v97.5h292.6v-97.5H398.8z"/>
	<path d="M593.9,301.2h97.5v97.5h-97.5V301.2z"/>
</g>
</svg>
